<?xml version="1.0" encoding="UTF-8"?>
<svg version="1.1" xmlns="http://www.w3.org/2000/svg" width="242" height="237">
<path d="M0 0 C1.19271011 -0.00642769 1.19271011 -0.00642769 2.40951538 -0.01298523 C4.08175717 -0.01868664 5.75402373 -0.01926002 7.42626953 -0.01489258 C9.93436992 -0.01175202 12.44126517 -0.03517669 14.94921875 -0.06054688 C39.73244404 -0.15842872 63.01570224 7.18736768 82.0859375 23.390625 C85.0851298 25.93681429 88.25121884 28.24063312 91.42578125 30.5625 C93.64788079 32.58465602 94.83158411 34.71105884 96.3359375 37.30078125 C97.51533009 38.61892591 98.72558748 39.90992876 99.9609375 41.17578125 C111.41692155 53.89529295 117.83018643 69.79303671 122.0859375 86.17578125 C122.28477539 86.92883545 122.48361328 87.68188965 122.68847656 88.45776367 C126.33925515 103.43190485 126.65971813 118.68259077 126.671875 134.0078125 C126.67832371 135.95017081 126.68505349 137.89252821 126.69204712 139.83488464 C126.70391655 143.87293756 126.70773806 147.91090553 126.70654297 151.94897461 C126.70633883 157.09405329 126.73378519 162.23858556 126.76808739 167.38353443 C126.790423 171.38238484 126.79437869 175.38110423 126.79332352 179.3800106 C126.79566387 181.27642408 126.80439775 183.17284205 126.81998825 185.06919289 C126.91914422 198.35749035 126.52903434 210.70836168 117.42578125 221.33203125 C105.27017475 232.78329419 87.80462547 232.75928933 72.12109375 232.59375 C70.52827866 232.58813606 68.93545829 232.5838745 67.34263611 232.58088684 C63.20477308 232.56957926 59.0672396 232.54023855 54.92950439 232.5067749 C50.68547012 232.47576517 46.44138119 232.46231635 42.19726562 232.44726562 C33.91000711 232.4153511 25.62301361 232.36433178 17.3359375 232.30078125 C16.36463283 229.38686724 16.20709739 227.53960094 16.203125 224.5078125 C16.20094971 223.50427734 16.19877441 222.50074219 16.1965332 221.46679688 C16.20128662 220.36013672 16.20604004 219.25347656 16.2109375 218.11328125 C16.21504639 216.95376953 16.21915527 215.79425781 16.22338867 214.59960938 C16.24801942 210.49978089 16.2891329 206.40040388 16.3359375 202.30078125 C16.34453796 201.49074646 16.35313843 200.68071167 16.36199951 199.84613037 C16.4202231 194.54980439 16.49948667 189.2542746 16.60040283 183.95858765 C16.63215245 182.20184931 16.65937301 180.44502265 16.68182373 178.68814087 C16.91969116 161.00322373 19.51292773 148.25953994 32.1484375 134.98828125 C42.36811029 125.33213736 54.20590944 121.58571908 67.3359375 117.30078125 C67.3359375 115.98078125 67.3359375 114.66078125 67.3359375 113.30078125 C66.72186035 113.09509521 66.1077832 112.88940918 65.47509766 112.67749023 C42.796592 104.99661043 42.796592 104.99661043 35.3359375 98.30078125 C34.57667969 97.68203125 33.81742188 97.06328125 33.03515625 96.42578125 C23.25253049 87.74472847 18.41449083 75.16673444 15.125 62.77734375 C14.49915233 60.15794544 14.49915233 60.15794544 12.3359375 58.30078125 C10.26719716 57.65825775 10.26719716 57.65825775 8.3359375 57.30078125 C8.09810547 58.26564453 8.09810547 58.26564453 7.85546875 59.25 C4.73259567 71.34466315 0.58177428 82.06540343 -6.6640625 92.30078125 C-7.06238281 92.89632812 -7.46070312 93.491875 -7.87109375 94.10546875 C-13.73278998 102.10057386 -24.33556462 106.11441456 -33.6640625 108.30078125 C-41.24939737 109.33780155 -48.85132254 109.51873692 -56.49609375 109.65234375 C-58.28825569 109.68707291 -58.28825569 109.68707291 -60.11662292 109.72250366 C-62.62515535 109.76985555 -65.13372795 109.81512155 -67.64233398 109.85839844 C-71.48242735 109.92588432 -75.32222594 110.00359124 -79.16210938 110.08203125 C-81.60675959 110.1269188 -84.05142083 110.17121049 -86.49609375 110.21484375 C-88.21491508 110.25069077 -88.21491508 110.25069077 -89.96846008 110.28726196 C-91.57119026 110.31256485 -91.57119026 110.31256485 -93.20629883 110.33837891 C-94.14210281 110.35534821 -95.0779068 110.3723175 -96.04206848 110.38980103 C-98.68744801 110.29998728 -101.08874747 109.89442244 -103.6640625 109.30078125 C-103.39632751 90.29159668 -99.0879323 73.82865572 -89.6640625 57.30078125 C-89.10847656 56.305625 -88.55289063 55.31046875 -87.98046875 54.28515625 C-83.48156978 46.73304767 -77.73804011 40.58695022 -71.6640625 34.30078125 C-70.99503906 33.58019531 -70.32601562 32.85960937 -69.63671875 32.1171875 C-52.09135269 13.68157031 -25.81871781 -0.03189846 0 0 Z " fill="#5F6FFE" transform="translate(104.6640625,-0.30078125)"/>
<path d="M0 0 C7.7288689 -0.04667965 15.45770375 -0.08204788 23.18667889 -0.10362434 C26.77692897 -0.11398855 30.36708145 -0.12801012 33.95727539 -0.15087891 C37.43269093 -0.17287387 40.90801357 -0.18462371 44.38349342 -0.18975449 C46.33127028 -0.19515866 48.27901062 -0.210727 50.22673035 -0.22659302 C68.41687317 -0.22884482 83.67021143 3.02784605 97.1875 15.75 C107.1632298 26.18278515 111.1413166 38.50458224 111.11352539 52.76147461 C111.11341209 54.71270485 111.11341209 54.71270485 111.11329651 56.70335388 C111.10819141 58.10301757 111.10297544 59.50268086 111.09765625 60.90234375 C111.09578866 62.34965465 111.09436637 63.79696619 111.09336853 65.24427795 C111.08957018 69.0335976 111.0797631 72.82287826 111.06866455 76.61218262 C111.05839247 80.48689242 111.05385854 84.3616086 111.04882812 88.23632812 C111.03813816 95.82423643 111.02109434 103.41211273 111 111 C107.25811727 112.18151327 103.68097657 112.14747518 99.77563477 112.17700195 C99.0546611 112.18357315 98.33368744 112.19014435 97.59086609 112.19691467 C95.20771159 112.21659996 92.82462024 112.22830472 90.44140625 112.23828125 C89.62282576 112.24235678 88.80424526 112.2464323 87.9608593 112.25063133 C83.62112559 112.27148004 79.28142331 112.28578229 74.94165039 112.29516602 C70.4901945 112.30617822 66.03924571 112.34052074 61.58796787 112.38033772 C58.13979765 112.40667821 54.69174454 112.41487357 51.24348259 112.41844749 C49.6046605 112.42327511 47.96584225 112.4347778 46.32711983 112.45348549 C34.01576395 112.58520306 21.61818261 111.99705906 11.7109375 103.69921875 C4.3169004 96.35582574 0.57507156 88.83742598 0.48828125 78.45703125 C0.47028473 77.63086304 0.45228821 76.80469482 0.43374634 75.95349121 C0.37892611 73.23987417 0.34524703 70.52646602 0.3125 67.8125 C0.27953645 65.91884967 0.24575055 64.0252135 0.21118164 62.1315918 C-0.13749041 41.42346137 -0.09790964 20.71014781 0 0 Z " fill="#5F70FD" transform="translate(0,120)"/>
<path d="M0 0 C2.5989234 2.61582697 4.98205283 5.17297819 5.01953125 8.98828125 C4.56095778 14.13641734 3.91762842 17.30623606 0 21 C-4.24939596 23.48029597 -8.18944023 24.17035431 -13 23 C-16.8365999 20.36058729 -19.42173821 17.21977914 -20.60546875 12.67578125 C-20.8562459 8.68368011 -20.05122311 6.11678869 -18.4375 2.4375 C-14.15843145 -2.01571669 -5.52809572 -1.10561914 0 0 Z " fill="#7380F7" transform="translate(227,0)"/>
<path d="M0 0 C7.7288689 -0.04667965 15.45770375 -0.08204788 23.18667889 -0.10362434 C26.77692897 -0.11398855 30.36708145 -0.12801012 33.95727539 -0.15087891 C37.43269093 -0.17287387 40.90801357 -0.18462371 44.38349342 -0.18975449 C46.33127028 -0.19515866 48.27901062 -0.210727 50.22673035 -0.22659302 C60.48448084 -0.22786285 70.27988648 0.55777615 80 4 C80 4.33 80 4.66 80 5 C73.375 5.125 73.375 5.125 70 4 C67.83846721 3.88224729 65.67358433 3.82310524 63.5090332 3.79467773 C62.84455516 3.78464501 62.18007711 3.77461229 61.49546337 3.76427555 C59.34727131 3.73292522 57.19906077 3.70813381 55.05078125 3.68359375 C53.73670288 3.66494263 52.42262451 3.6462915 51.06872559 3.6270752 C46.1500535 3.55866785 41.23126842 3.49858924 36.3125 3.4375 C19.8228125 3.2209375 19.8228125 3.2209375 3 3 C3 31.38 3 59.76 3 89 C0.05933015 86.05933015 0.64365278 82.89411927 0.5859375 78.9453125 C0.5568203 77.69544807 0.5568203 77.69544807 0.52711487 76.42033386 C0.4661325 73.655329 0.42014579 70.89030554 0.375 68.125 C0.33700203 66.20857086 0.29866747 64.29214837 0.26000977 62.37573242 C-0.13200087 41.58561759 -0.09830007 20.79273244 0 0 Z " fill="#9BA4ED" transform="translate(0,120)"/>
<path d="M0 0 C0.33 0 0.66 0 1 0 C1 22.11 1 44.22 1 67 C14.46592791 66.87994681 14.46592791 66.87994681 27.93164062 66.7421875 C33.42875631 66.68202584 38.92583875 66.62387823 44.4230957 66.578125 C48.85820897 66.54108098 53.29313681 66.49467072 57.72809029 66.44193649 C59.41480804 66.42349362 61.10156538 66.40834893 62.78834343 66.39665604 C71.12858913 66.33680376 78.86561512 66.03591348 87 64 C89.22764587 64.44302368 89.22764587 64.44302368 91 65 C79.73565933 70.63217033 67.37986439 70.28097143 55.078125 70.1953125 C53.48101989 70.19157297 51.88391245 70.18873045 50.2868042 70.18673706 C46.12432291 70.17917449 41.9619857 70.15959128 37.79956055 70.1373291 C33.53566434 70.11670986 29.2717444 70.10770129 25.0078125 70.09765625 C16.67180957 70.07633686 8.33592281 70.04229242 0 70 C-0.97130467 67.08608599 -1.12884011 65.23881969 -1.1328125 62.20703125 C-1.13474609 61.20260986 -1.13667969 60.19818848 -1.13867188 59.16333008 C-1.13416016 58.05755615 -1.12964844 56.95178223 -1.125 55.8125 C-1.12209961 54.08519653 -1.12209961 54.08519653 -1.11914062 52.32299805 C-1.03759547 34.87799683 -0.49351913 17.43723826 0 0 Z " fill="#A1A8EE" transform="translate(122,162)"/>
<path d="M0 0 C3.39519371 5.09279056 3.12518024 10.78253727 3.11352539 16.76147461 C3.11341209 18.71270485 3.11341209 18.71270485 3.11329651 20.70335388 C3.10819141 22.10301757 3.10297544 23.50268086 3.09765625 24.90234375 C3.09578866 26.34965465 3.09436637 27.79696619 3.09336853 29.24427795 C3.08957018 33.0335976 3.0797631 36.82287826 3.06866455 40.61218262 C3.05839247 44.48689242 3.05385854 48.3616086 3.04882812 52.23632812 C3.03813816 59.82423643 3.02109434 67.41211273 3 75 C-0.75210164 76.19808889 -4.45574965 76.14084907 -8.35131836 76.12939453 C-9.08514236 76.13114685 -9.81896637 76.13289917 -10.57502747 76.13470459 C-12.99665708 76.13909956 -15.41821342 76.13619309 -17.83984375 76.1328125 C-19.52608759 76.13348629 -21.21233133 76.13445694 -22.89857483 76.13571167 C-26.43166021 76.13718551 -29.9647203 76.1350444 -33.49780273 76.13037109 C-38.02158342 76.12467837 -42.54530471 76.1279519 -47.06908321 76.13394356 C-50.55123846 76.13756134 -54.03337968 76.1364049 -57.51553535 76.13381577 C-59.18326385 76.13314964 -60.85099363 76.13396392 -62.51872063 76.13629532 C-64.85227695 76.13884132 -67.18573787 76.13495361 -69.51928711 76.12939453 C-70.20568268 76.13141876 -70.89207825 76.13344299 -71.59927368 76.13552856 C-75.19150035 76.11971535 -78.50572546 75.84571523 -82 75 C-82 74.67 -82 74.34 -82 74 C-54.61 74 -27.22 74 1 74 C0.67 49.58 0.34 25.16 0 0 Z " fill="#9BA6ED" transform="translate(108,156)"/>
<path d="M0 0 C0.33 0 0.66 0 1 0 C1 6.27 1 12.54 1 19 C9.58813991 18.89208874 18.17619514 18.78005136 26.76418209 18.66066074 C30.75153216 18.60539527 34.73888952 18.55196963 38.72631836 18.50268555 C42.57131601 18.45509524 46.41622182 18.40275464 50.26111031 18.34705925 C51.73116342 18.32661143 53.20124174 18.30790244 54.67133904 18.29092598 C56.72361276 18.26693536 58.77571147 18.2368741 60.82788086 18.20532227 C61.99814316 18.18977798 63.16840546 18.1742337 64.37413025 18.15821838 C66.9252526 18.29584674 66.9252526 18.29584674 68 17 C70.33297433 16.95907063 72.66705225 16.95758277 75 17 C64.49649209 24.00233861 45.82066053 21.46177951 33.7199707 21.63305664 C29.91526266 21.68782008 26.11105568 21.75797389 22.30664062 21.83007812 C19.88022325 21.8706926 17.45379112 21.91043757 15.02734375 21.94921875 C13.89401108 21.96997971 12.76067841 21.99074066 11.59300232 22.01213074 C10.00963829 22.03259209 10.00963829 22.03259209 8.39428711 22.0534668 C7.00867836 22.07439644 7.00867836 22.07439644 5.59507751 22.0957489 C2.9625336 21.99861763 0.56376639 21.58871941 -2 21 C-1.85888117 18.24968413 -1.71228835 15.49984582 -1.5625 12.75 C-1.52318359 11.97269531 -1.48386719 11.19539063 -1.44335938 10.39453125 C-1.40146484 9.64042969 -1.35957031 8.88632813 -1.31640625 8.109375 C-1.27974854 7.41811523 -1.24309082 6.72685547 -1.20532227 6.01464844 C-0.99324476 3.93371671 -0.55491323 2.01427578 0 0 Z " fill="#9199EB" transform="translate(3,88)"/>
<path d="M0 0 C0.33 0 0.66 0 1 0 C2.30282908 10.01011363 2.18304346 20.01744191 2.203125 30.09375 C2.20736607 31.53411873 2.20736607 31.53411873 2.21169281 33.00358582 C2.2266112 38.07905343 2.23588874 43.15449313 2.24023438 48.22998047 C2.24572778 53.44821099 2.26979534 58.66618177 2.29820633 63.88433075 C2.31689245 67.9216994 2.32204135 71.95900596 2.32357025 75.99641418 C2.3265806 77.91959564 2.33455387 79.84277642 2.34775543 81.76591492 C2.47061163 101.02708873 2.47061163 101.02708873 -1 109 C-1.33 109 -1.66 109 -2 109 C-2.25307245 102.54665251 -2.25307245 102.54665251 -1.00637817 99.85371399 C0.44521723 95.73752961 0.26209593 91.86108526 0.22705078 87.52807617 C0.22734283 86.58124969 0.22763489 85.63442322 0.22793579 84.65890503 C0.22654513 81.53683227 0.21099621 78.4149997 0.1953125 75.29296875 C0.19158144 73.12535228 0.1887349 70.95773412 0.18673706 68.79011536 C0.17910798 63.09041675 0.15946563 57.39082038 0.1373291 51.69116211 C0.1168551 45.87289818 0.10773201 40.05461771 0.09765625 34.23632812 C0.07621913 22.82417388 0.04209186 11.41209545 0 0 Z " fill="#BAC1F8" transform="translate(229,103)"/>
<path d="M0 0 C4.08718695 -0.24042276 7.17679443 0.57741188 11 2 C11 2.66 11 3.32 11 4 C34.76 4 58.52 4 83 4 C83 4.33 83 4.66 83 5 C73.35944524 5.09289208 63.71904577 5.16386203 54.07814026 5.20724869 C49.60092298 5.2280776 45.12401307 5.25630874 40.64697266 5.30175781 C36.32217408 5.34538405 31.99767019 5.36917239 27.67266846 5.37950897 C26.02691004 5.38687036 24.38116681 5.40124534 22.73553467 5.42292023 C6.847647 5.62376164 6.847647 5.62376164 0 1 C0 0.67 0 0.34 0 0 Z " fill="#6170F2" transform="translate(15,225)"/>
<path d="M0 0 C-1.1875 1.5 -1.1875 1.5 -3 3 C-5.6875 3.1875 -5.6875 3.1875 -8 3 C-8.433125 3.9590625 -8.433125 3.9590625 -8.875 4.9375 C-10 7 -10 7 -12 8 C-12 7.34 -12 6.68 -12 6 C-12.391875 6.433125 -12.78375 6.86625 -13.1875 7.3125 C-15.28326189 9.26372658 -17.53868415 10.54845476 -20 12 C-20.66 12.66 -21.32 13.32 -22 14 C-24.125 13.625 -24.125 13.625 -26 13 C-20.83113375 7.86153885 -7.77420448 -3.88710224 0 0 Z " fill="#848DF0" transform="translate(163,122)"/>
<path d="M0 0 C0.66 0.33 1.32 0.66 2 1 C-0.57979931 5.20411739 -3.07832134 8.03224317 -7 11 C-7.33 11.66 -7.66 12.32 -8 13 C-8.66 13 -9.32 13 -10 13 C-10.33 14.32 -10.66 15.64 -11 17 C-12.65 17.33 -14.3 17.66 -16 18 C-14.6415798 14.95667235 -13.11536976 12.87690849 -10.7421875 10.546875 C-10.11699219 9.928125 -9.49179687 9.309375 -8.84765625 8.671875 C-8.19667969 8.03765625 -7.54570313 7.4034375 -6.875 6.75 C-6.21628906 6.1003125 -5.55757812 5.450625 -4.87890625 4.78125 C-3.25703357 3.18288273 -1.6306719 1.58938103 0 0 Z " fill="#8F99EE" transform="translate(41,26)"/>
<path d="M0 0 C0.66 0.33 1.32 0.66 2 1 C0.7934375 1.4021875 0.7934375 1.4021875 -0.4375 1.8125 C-1.283125 2.204375 -2.12875 2.59625 -3 3 C-3.33 3.99 -3.66 4.98 -4 6 C-6.36328125 7.203125 -6.36328125 7.203125 -9.3125 8.25 C-10.76076172 8.78367187 -10.76076172 8.78367187 -12.23828125 9.328125 C-15.10065546 10.02448761 -16.26003687 9.81265439 -19 9 C-16.39704724 7.68504458 -13.79271967 6.37295014 -11.1875 5.0625 C-10.44951172 4.68931641 -9.71152344 4.31613281 -8.95117188 3.93164062 C-8.23896484 3.57392578 -7.52675781 3.21621094 -6.79296875 2.84765625 C-6.1383667 2.51773682 -5.48376465 2.18781738 -4.80932617 1.84790039 C-3 1 -3 1 0 0 Z " fill="#9AA3F1" transform="translate(77,5)"/>
<path d="M0 0 C0 1.32 0 2.64 0 4 C-3.2192268 5.0730756 -3.90206442 4.79946725 -7 4 C-7.99 4.495 -7.99 4.495 -9 5 C-10.87379605 5.07033769 -12.75001102 5.0843022 -14.625 5.0625 C-15.62789063 5.05347656 -16.63078125 5.04445313 -17.6640625 5.03515625 C-18.43492188 5.02355469 -19.20578125 5.01195312 -20 5 C-16.75421598 2.83614399 -14.34716433 2.2255829 -10.5625 1.375 C-8.86287109 0.98441406 -8.86287109 0.98441406 -7.12890625 0.5859375 C-4 0 -4 0 0 0 Z " fill="#8D95EC" transform="translate(100,0)"/>
<path d="M0 0 C0.99 0 1.98 0 3 0 C2.64010575 2.72575644 2.24183438 3.78718575 0.14453125 5.6328125 C-4.13636259 8.37201091 -8.01783577 10.72252199 -13 12 C-12.67 10.68 -12.34 9.36 -12 8 C-10.35 7.67 -8.7 7.34 -7 7 C-7 6.34 -7 5.68 -7 5 C-5.68 5.33 -4.36 5.66 -3 6 C-2.67 4.68 -2.34 3.36 -2 2 C-1.34 2.33 -0.68 2.66 0 3 C0 2.01 0 1.02 0 0 Z " fill="#919BF0" transform="translate(92,93)"/>
<path d="M0 0 C0 2.92828926 -0.13970066 5.20402714 -1 8 C-1.639375 8.28875 -2.27875 8.5775 -2.9375 8.875 C-5.43339801 9.93585211 -5.43339801 9.93585211 -6.25 13.625 C-6.4975 14.73875 -6.745 15.8525 -7 17 C-8.32 17.33 -9.64 17.66 -11 18 C-9.5810861 14.10508136 -7.74229459 10.79470749 -5.5 7.3125 C-4.8915625 6.35988281 -4.283125 5.40726563 -3.65625 4.42578125 C-2 2 -2 2 0 0 Z " fill="#A6AEF0" transform="translate(24,44)"/>
<path d="M0 0 C0.33 0 0.66 0 1 0 C1.33 6.93 1.66 13.86 2 21 C4.31 21.33 6.62 21.66 9 22 C9 22.33 9 22.66 9 23 C6.03 23.33 3.06 23.66 0 24 C-1.01044795 20.96865616 -1.05032949 19.25604057 -0.87890625 16.11328125 C-0.83056641 15.17548828 -0.78222656 14.23769531 -0.73242188 13.27148438 C-0.67634766 12.29501953 -0.62027344 11.31855469 -0.5625 10.3125 C-0.51029297 9.32443359 -0.45808594 8.33636719 -0.40429688 7.31835938 C-0.27464694 4.87858324 -0.13968258 2.43921895 0 0 Z " fill="#989FE8" transform="translate(122,208)"/>
<path d="M0 0 C4.17906895 3.55994763 6.68559431 8.08663054 9 13 C9 13.66 9 14.32 9 15 C7 15 7 15 5.5 13.9375 C3.38197257 11.20171456 2.8157003 8.32554738 2 5 C1.01 5 0.02 5 -1 5 C-0.67 3.35 -0.34 1.7 0 0 Z " fill="#8F98EE" transform="translate(209,48)"/>
<path d="M0 0 C4.08718695 -0.24042276 7.17679443 0.57741188 11 2 C11 2.66 11 3.32 11 4 C14.96 4 18.92 4 23 4 C23 4.33 23 4.66 23 5 C7.25512528 5.738041 7.25512528 5.738041 0 1 C0 0.67 0 0.34 0 0 Z " fill="#848EED" transform="translate(15,225)"/>
<path d="M0 0 C0.99 0.33 1.98 0.66 3 1 C1.31755566 6.20028252 -1.55329414 10.54520192 -6.3125 13.375 C-6.869375 13.58125 -7.42625 13.7875 -8 14 C-8 12.68 -8 11.36 -8 10 C-6.68 10 -5.36 10 -4 10 C-3.67 8.35 -3.34 6.7 -3 5 C-2.01 5 -1.02 5 0 5 C0 3.35 0 1.7 0 0 Z " fill="#929BF1" transform="translate(224,211)"/>
<path d="M0 0 C3.42222677 0.64362981 5.84953515 1.9697927 8.75 3.875 C9.54921875 4.38804687 10.3484375 4.90109375 11.171875 5.4296875 C11.77515625 5.94789063 12.3784375 6.46609375 13 7 C13 7.99 13 8.98 13 10 C12.67 9.34 12.34 8.68 12 8 C9.87423218 7.53348793 9.87423218 7.53348793 7.4375 7.375 C6.61121094 7.30023438 5.78492187 7.22546875 4.93359375 7.1484375 C4.29550781 7.09945312 3.65742187 7.05046875 3 7 C3 5 3 5 4 4 C3.67 3.34 3.34 2.68 3 2 C2.01 2 1.02 2 0 2 C0 1.34 0 0.68 0 0 Z " fill="#929DEF" transform="translate(80,125)"/>
<path d="M0 0 C0.99 0.33 1.98 0.66 3 1 C3.33 2.65 3.66 4.3 4 6 C4.66 6 5.32 6 6 6 C6 6.66 6 7.32 6 8 C6.66 8 7.32 8 8 8 C9.625 9.5 9.625 9.5 11 11 C10.67 11.99 10.34 12.98 10 14 C5.23585727 10.42689295 2.62917748 7.35947716 0 2 C0 1.34 0 0.68 0 0 Z " fill="#979FF0" transform="translate(127,80)"/>
<path d="M0 0 C2.27147806 2.27147806 2.82754965 3.8436916 3.8125 6.875 C4.25529297 8.17050781 4.25529297 8.17050781 4.70703125 9.4921875 C5 12 5 12 3.57421875 14.3203125 C3.05472656 14.87460938 2.53523437 15.42890625 2 16 C1.67 13.69 1.34 11.38 1 9 C0.67 9 0.34 9 0 9 C0 6.03 0 3.06 0 0 Z " fill="#878FF3" transform="translate(218,63)"/>
<path d="M0 0 C0.33 0 0.66 0 1 0 C1.08107646 2.75059381 1.14052813 5.49879021 1.1875 8.25 C1.21263672 9.02730469 1.23777344 9.80460937 1.26367188 10.60546875 C1.33834499 16.42997175 1.33834499 16.42997175 -0.51171875 19.546875 C-1.00285156 20.02640625 -1.49398438 20.5059375 -2 21 C-1.85888117 18.24968413 -1.71228835 15.49984582 -1.5625 12.75 C-1.52318359 11.97269531 -1.48386719 11.19539063 -1.44335938 10.39453125 C-1.40146484 9.64042969 -1.35957031 8.88632813 -1.31640625 8.109375 C-1.27974854 7.41811523 -1.24309082 6.72685547 -1.20532227 6.01464844 C-0.99324476 3.93371671 -0.55491323 2.01427578 0 0 Z " fill="#B2BCF6" transform="translate(3,88)"/>
<path d="M0 0 C3.16115776 1.36983503 3.9927092 1.9890638 6 5 C5.625 7.1875 5.625 7.1875 5 9 C2.5 6.75 2.5 6.75 0 4 C0 2.68 0 1.36 0 0 Z " fill="#848CF0" transform="translate(99,141)"/>
<path d="M0 0 C-2.66892697 3.45390549 -5.84151743 4.12452998 -10 5 C-12.22265625 4.546875 -12.22265625 4.546875 -14 4 C-12.75264433 3.3490741 -11.50198168 2.70448331 -10.25 2.0625 C-9.55390625 1.70285156 -8.8578125 1.34320313 -8.140625 0.97265625 C-2.85659656 -1.42829828 -2.85659656 -1.42829828 0 0 Z " fill="#9FA6F3" transform="translate(163,122)"/>
<path d="M0 0 C3.63396553 1.00943487 4.93391767 1.91605758 7.3125 4.9375 C9 8 9 8 9 11 C8.34 10.67 7.68 10.34 7 10 C7 9.34 7 8.68 7 8 C6.01 7.67 5.02 7.34 4 7 C2.45428722 4.68143083 1.20381448 2.49361571 0 0 Z " fill="#8E97ED" transform="translate(192,29)"/>
<path d="M0 0 C0.33 0 0.66 0 1 0 C1.17942163 3.94727588 1.09350689 6.5980513 -1 10 C-1.66 10 -2.32 10 -3 10 C-3.66 11.32 -4.32 12.64 -5 14 C-4.34580901 8.93001981 -2.1453591 4.58009223 0 0 Z " fill="#B2B7F2" transform="translate(12,62)"/>
<path d="M0 0 C-4.88077452 2.44038726 -7.52667068 3.46845421 -13 2 C-8.7920942 -0.80527053 -4.85771358 -1.68151624 0 0 Z " fill="#929BF2" transform="translate(213,227)"/>
<path d="M0 0 C5.27315333 0.4452885 10.01770224 1.08373163 15 3 C15 3.33 15 3.66 15 4 C8.375 4.125 8.375 4.125 5 3 C5 2.34 5 1.68 5 1 C3.35 1 1.7 1 0 1 C0 0.67 0 0.34 0 0 Z " fill="#AEB7F3" transform="translate(65,121)"/>
<path d="M0 0 C0.66 0 1.32 0 2 0 C1.39301257 4.12751449 -0.03810791 7.3321148 -2 11 C-2.66 9.68 -3.32 8.36 -4 7 C-3.67 7 -3.34 7 -3 7 C-2.67 5.35 -2.34 3.7 -2 2 C-1.34 2 -0.68 2 0 2 C0 1.34 0 0.68 0 0 Z " fill="#94A2EE" transform="translate(105,74)"/>
<path d="M0 0 C0 3.65351863 -0.88942301 5.06026776 -3 8 C-5.1875 9.3125 -5.1875 9.3125 -7 10 C-5.6062718 5.56541027 -3.39417765 3.12621626 0 0 Z " fill="#9AA1F1" transform="translate(136,136)"/>
<path d="M0 0 C3.4375 1.1875 3.4375 1.1875 7 3 C7.9375 5.6875 7.9375 5.6875 8 8 C4.63820226 6.55922954 2.40843732 4.75249979 0 2 C0 1.34 0 0.68 0 0 Z " fill="#9FA5EF" transform="translate(7,217)"/>
<path d="M0 0 C0.33 0 0.66 0 1 0 C1.14285714 8.57142857 1.14285714 8.57142857 0 12 C-0.66 12 -1.32 12 -2 12 C-1.85831863 10.56208484 -1.71148957 9.1246763 -1.5625 7.6875 C-1.48128906 6.88699219 -1.40007813 6.08648437 -1.31640625 5.26171875 C-1 3 -1 3 0 0 Z " fill="#ADB3F0" transform="translate(6,76)"/>
<path d="M0 0 C1.98 0.495 1.98 0.495 4 1 C3.01 3.97 2.02 6.94 1 10 C0.67 10 0.34 10 0 10 C-0.19412181 8.52168779 -0.38012131 7.04230684 -0.5625 5.5625 C-0.66691406 4.73878906 -0.77132812 3.91507813 -0.87890625 3.06640625 C-0.91886719 2.38449219 -0.95882812 1.70257813 -1 1 C-0.67 0.67 -0.34 0.34 0 0 Z " fill="#939DF3" transform="translate(109,58)"/>
<path d="M0 0 C0.99 0 1.98 0 3 0 C1.8141763 3.37503669 0.72426311 5.64722731 -2 8 C-1.125 2.25 -1.125 2.25 0 0 Z " fill="#6A74ED" transform="translate(9,72)"/>
<path d="M0 0 C3.7952131 1.49097658 5.61042731 3.75700849 8 7 C7.01 7 6.02 7 5 7 C0 1.53488372 0 1.53488372 0 0 Z " fill="#96A3F0" transform="translate(184,22)"/>
<path d="M0 0 C0 0.66 0 1.32 0 2 C-0.99 2.33 -1.98 2.66 -3 3 C-4.37195574 4.29355827 -5.71182656 5.62298702 -7 7 C-7.66 6.34 -8.32 5.68 -9 5 C-7.87926138 4.16094435 -6.75325453 3.32892169 -5.625 2.5 C-4.99851562 2.0359375 -4.37203125 1.571875 -3.7265625 1.09375 C-2 0 -2 0 0 0 Z " fill="#A8B0F2" transform="translate(58,15)"/>
<path d="M0 0 C2.35953094 2.35953094 2.49141413 3.77895617 3 7 C2.01 7.66 1.02 8.32 0 9 C0 6.03 0 3.06 0 0 Z " fill="#959CF3" transform="translate(218,63)"/>
<path d="M0 0 C0.99 0 1.98 0 3 0 C2.67 1.32 2.34 2.64 2 4 C0.68 4.33 -0.64 4.66 -2 5 C-1.34 3.35 -0.68 1.7 0 0 Z " fill="#949EF1" transform="translate(15,57)"/>
<path d="M0 0 C0 1.32 0 2.64 0 4 C-0.99 4.33 -1.98 4.66 -3 5 C-3 4.34 -3 3.68 -3 3 C-4.65 2.67 -6.3 2.34 -8 2 C-4.91190305 0.23537317 -3.76687864 0 0 0 Z " fill="#909DF6" transform="translate(100,0)"/>
</svg>
