<?xml version="1.0" encoding="UTF-8"?>
<svg version="1.1" xmlns="http://www.w3.org/2000/svg" width="387" height="191">
<path d="M0 0 C127.71 0 255.42 0 387 0 C387 63.03 387 126.06 387 191 C259.29 191 131.58 191 0 191 C0 127.97 0 64.94 0 0 Z " fill="#FEFEFE" transform="translate(0,0)"/>
<path d="M0 0 C4.43305124 3.46155278 7.44278274 7.2876064 9.0859375 12.74609375 C9.56096561 17.92426558 9.46511692 23.05698083 9.3359375 28.24609375 C9.31583916 29.65492249 9.29759428 31.06377896 9.28125 32.47265625 C9.23432953 35.89785039 9.16868527 39.32160899 9.0859375 42.74609375 C9.95283203 42.72514648 10.81972656 42.70419922 11.71289062 42.68261719 C14.9631754 42.61399813 18.21308807 42.56407924 21.46386719 42.52636719 C22.86438223 42.50638745 24.26481532 42.47919355 25.66503906 42.44433594 C34.82489853 42.22219955 41.90849922 42.18834886 49.109375 48.52734375 C49.55539063 49.09453125 50.00140625 49.66171875 50.4609375 50.24609375 C50.92242187 50.81328125 51.38390625 51.38046875 51.859375 51.96484375 C56.29706772 58.40939114 56.22032569 66.16023633 55.0859375 73.74609375 C52.59143131 80.27974698 47.94763611 84.20695497 42.0859375 87.74609375 C38.60487236 88.9064488 35.9012142 88.86612079 32.2277832 88.85961914 C31.53484161 88.85976517 30.84190002 88.85991119 30.12796021 88.86006165 C27.83918113 88.85936538 25.5504836 88.85158635 23.26171875 88.84375 C21.67416936 88.84188481 20.08661939 88.84046138 18.49906921 88.83946228 C14.3217103 88.83564509 10.14438619 88.82582161 5.96704102 88.8147583 C0.9543403 88.80272801 -4.05837205 88.79813814 -9.07108307 88.79230499 C-16.68543374 88.78260944 -24.29970807 88.76344731 -31.9140625 88.74609375 C-31.9140625 104.25609375 -31.9140625 119.76609375 -31.9140625 135.74609375 C-33.5640625 135.74609375 -35.2140625 135.74609375 -36.9140625 135.74609375 C-37.03101696 119.71672881 -37.11910962 103.6875029 -37.17312336 87.65781403 C-37.19887283 80.214439 -37.2339604 72.77132954 -37.29125977 65.328125 C-37.34119528 58.83837752 -37.3733772 52.34882242 -37.38450497 45.85888815 C-37.39100679 42.42442594 -37.40621809 38.99051397 -37.44271278 35.55622864 C-37.47905026 31.7161914 -37.48400551 27.8772911 -37.48168945 24.03710938 C-37.49966583 22.90638 -37.51764221 21.77565063 -37.53616333 20.61065674 C-37.48297361 12.45147064 -35.4923056 7.74939812 -30.10546875 1.72265625 C-20.9804997 -5.848661 -9.99640997 -6.54866857 0 0 Z " fill="#1F2B5B" transform="translate(114.9140625,34.25390625)"/>
<path d="M0 0 C4.43305124 3.46155278 7.44278274 7.2876064 9.0859375 12.74609375 C9.56118102 17.9266137 9.46265311 23.04963221 9.3359375 28.24609375 C9.2534375 33.03109375 9.1709375 37.81609375 9.0859375 42.74609375 C-6.0940625 42.74609375 -21.2740625 42.74609375 -36.9140625 42.74609375 C-37.0171875 37.79609375 -37.1203125 32.84609375 -37.2265625 27.74609375 C-37.27208252 26.20050781 -37.31760254 24.65492187 -37.36450195 23.0625 C-37.44107447 15.46650613 -37.29361713 9.59946415 -31.9140625 3.74609375 C-31.31722656 3.07835937 -30.72039062 2.410625 -30.10546875 1.72265625 C-20.9804997 -5.848661 -9.99640997 -6.54866857 0 0 Z " fill="#7051EB" transform="translate(114.9140625,34.25390625)"/>
<path d="M0 0 C7.1775 -0.12375 7.1775 -0.12375 14.5 -0.25 C15.99337891 -0.28641602 17.48675781 -0.32283203 19.02539062 -0.36035156 C27.60702616 -0.43190366 33.39863296 -0.05062427 40.0234375 5.78125 C40.46945313 6.3484375 40.91546875 6.915625 41.375 7.5 C41.83648437 8.0671875 42.29796875 8.634375 42.7734375 9.21875 C47.21113022 15.66329739 47.13438819 23.41414258 46 31 C43.50549381 37.53365323 38.86169861 41.46086122 33 45 C29.52217417 46.15927528 26.81196743 46.11313066 23.14453125 46.09765625 C21.93385986 46.09515869 20.72318848 46.09266113 19.47583008 46.09008789 C17.93693115 46.08098389 16.39803223 46.07187988 14.8125 46.0625 C9.924375 46.041875 5.03625 46.02125 0 46 C0 30.82 0 15.64 0 0 Z " fill="#7051EB" transform="translate(124,77)"/>
<path d="M0 0 C3.3 0 6.6 0 10 0 C10 2.97 10 5.94 10 9 C12.97 9 15.94 9 19 9 C19 12.3 19 15.6 19 19 C16.03 19 13.06 19 10 19 C10 21.97 10 24.94 10 28 C6.7 28 3.4 28 0 28 C0 25.03 0 22.06 0 19 C-2.97 19 -5.94 19 -9 19 C-9 15.7 -9 12.4 -9 9 C-6.03 9 -3.06 9 0 9 C0 6.03 0 3.06 0 0 Z " fill="#6A4EE3" transform="translate(96,86)"/>
<path d="M0 0 C2.475 0.495 2.475 0.495 5 1 C6.36328125 3.06640625 6.36328125 3.06640625 7.3125 5.5625 C7.63863281 6.38878906 7.96476563 7.21507812 8.30078125 8.06640625 C8.53152344 8.70449219 8.76226562 9.34257812 9 10 C11.52349243 6.87567603 13.27256146 3.61939504 15 0 C16.65 0 18.3 0 20 0 C20 5.94 20 11.88 20 18 C18.68 18 17.36 18 16 18 C15.67 15.03 15.34 12.06 15 9 C13.68 11.97 12.36 14.94 11 18 C10.01 18 9.02 18 8 18 C7.01 16.02 6.02 14.04 5 12 C4.67 13.98 4.34 15.96 4 18 C2.68 18 1.36 18 0 18 C0 12.06 0 6.12 0 0 Z " fill="#9560FF" transform="translate(128,130)"/>
<path d="M0 0 C1.65 0 3.3 0 5 0 C5 15.51 5 31.02 5 47 C3.35 47 1.7 47 0 47 C0 31.49 0 15.98 0 0 Z " fill="#6145CF" transform="translate(78,123)"/>
<path d="M0 0 C1.588125 -0.061875 3.17625 -0.12375 4.8125 -0.1875 C6.15248047 -0.23970703 6.15248047 -0.23970703 7.51953125 -0.29296875 C10 0 10 0 11.84375 1.28125 C13 3 13 3 12.6875 6.6875 C12.460625 7.780625 12.23375 8.87375 12 10 C11.34 10 10.68 10 10 10 C10.66 10.94875 11.32 11.8975 12 12.875 C14 16 14 16 14 18 C11.6875 17.8125 11.6875 17.8125 9 17 C7.3125 14.5 7.3125 14.5 6 12 C5.34 11.67 4.68 11.34 4 11 C4 13.31 4 15.62 4 18 C2.68 18 1.36 18 0 18 C0 12.06 0 6.12 0 0 Z " fill="#925BFF" transform="translate(103,130)"/>
<path d="M0 0 C9 0 9 0 12 2 C12.1875 5.625 12.1875 5.625 12 9 C11.01 9.33 10.02 9.66 9 10 C10.65 12.64 12.3 15.28 14 18 C11.75 18.375 11.75 18.375 9 18 C6.6875 15 6.6875 15 5 12 C4.67 13.98 4.34 15.96 4 18 C2.68 18 1.36 18 0 18 C0 12.06 0 6.12 0 0 Z " fill="#935DFF" transform="translate(202,130)"/>
<path d="M0 0 C1.65 0 3.3 0 5 0 C6.00399524 2.62353518 7.00334445 5.24867795 8 7.875 C8.28617188 8.62136719 8.57234375 9.36773437 8.8671875 10.13671875 C11 15.7734375 11 15.7734375 11 18 C9.35 17.67 7.7 17.34 6 17 C6 16.34 6 15.68 6 15 C3.6568787 15.25561323 1.32156597 15.59270772 -1 16 C-1.33 16.66 -1.66 17.32 -2 18 C-3.32 18 -4.64 18 -6 18 C-5.41347648 13.51006131 -4.2356462 9.77456816 -2.4375 5.625 C-1.98246094 4.56539062 -1.52742187 3.50578125 -1.05859375 2.4140625 C-0.70925781 1.61742187 -0.35992187 0.82078125 0 0 Z " fill="#9D6CFF" transform="translate(189,130)"/>
<path d="M0 0 C1.588125 -0.061875 3.17625 -0.12375 4.8125 -0.1875 C6.15248047 -0.23970703 6.15248047 -0.23970703 7.51953125 -0.29296875 C10 0 10 0 11.80078125 1.35546875 C13.50731102 3.69569361 13.42408618 5.1727588 13 8 C11.875 9.8125 11.875 9.8125 10 11 C6.8125 11.1875 6.8125 11.1875 4 11 C4 13.31 4 15.62 4 18 C2.68 18 1.36 18 0 18 C0 12.06 0 6.12 0 0 Z " fill="#935DFF" transform="translate(88,130)"/>
<path d="M0 0 C2.9375 2.5 2.9375 2.5 5 5 C3.0625 5.5625 3.0625 5.5625 1 6 C0.67 5.67 0.34 5.34 0 5 C-3 4.83333333 -3 4.83333333 -6 5 C-7.34404775 6.11836224 -7.34404775 6.11836224 -7.125 9 C-7.34404775 11.88163776 -7.34404775 11.88163776 -6 13 C-2.47362528 13.15672777 0.61905851 13.04028969 4 12 C4 15 4 15 2.4375 16.6875 C-0.98140406 18.52844834 -3.16890025 18.53769821 -7 18 C-9.91963173 16.01216563 -11.61102978 14.5685303 -12.48046875 11.0625 C-12.75815509 7.09984094 -12.23092162 5.33588599 -9.9375 2 C-6.22192774 -0.52975133 -4.4117517 -0.7878128 0 0 Z " fill="#935CFF" transform="translate(177,130)"/>
<path d="M0 0 C3.63 0 7.26 0 11 0 C11 0.99 11 1.98 11 3 C8.69 3 6.38 3 4 3 C4 4.32 4 5.64 4 7 C5.98 7 7.96 7 10 7 C10 8.32 10 9.64 10 11 C8.02 11 6.04 11 4 11 C4 11.99 4 12.98 4 14 C6.31 14 8.62 14 11 14 C11 15.32 11 16.64 11 18 C7.37 18 3.74 18 0 18 C0 12.06 0 6.12 0 0 Z " fill="#935DFF" transform="translate(151,130)"/>
<path d="M0 0 C3.63 0 7.26 0 11 0 C11 0.99 11 1.98 11 3 C8.69 3 6.38 3 4 3 C4 4.32 4 5.64 4 7 C5.98 7 7.96 7 10 7 C10 8.32 10 9.64 10 11 C8.02 11 6.04 11 4 11 C4 12.32 4 13.64 4 15 C6.31 15 8.62 15 11 15 C11 15.99 11 16.98 11 18 C7.37 18 3.74 18 0 18 C0 12.06 0 6.12 0 0 Z " fill="#9059FF" transform="translate(218,130)"/>
<path d="M0 0 C1.32 0 2.64 0 4 0 C4 5.94 4 11.88 4 18 C2.68 18 1.36 18 0 18 C0 12.06 0 6.12 0 0 Z " fill="#9661FF" transform="translate(120,130)"/>
<path d="M0 0 C0.33 0 0.66 0 1 0 C1 3.96 1 7.92 1 12 C-0.65 12 -2.3 12 -4 12 C-4.66 11.34 -5.32 10.68 -6 10 C-5.625 7.875 -5.625 7.875 -5 6 C-3.68 5.67 -2.36 5.34 -1 5 C-0.67 3.35 -0.34 1.7 0 0 Z " fill="#C3A5FF" transform="translate(120,153)"/>
<path d="M0 0 C0.33 2.31 0.66 4.62 1 7 C-1.33294775 7.04241723 -3.66702567 7.04092937 -6 7 C-7 6 -7 6 -7.0625 3.4375 C-7.041875 2.633125 -7.02125 1.82875 -7 1 C-4.53721199 -0.231394 -2.7204945 -0.07159196 0 0 Z " fill="#D5C1FF" transform="translate(150,158)"/>
<path d="M0 0 C2.125 0.375 2.125 0.375 4 1 C4.38218767 2.65614657 4.71395102 4.32457024 5 6 C4 7 4 7 1.4375 7.0625 C0.2309375 7.0315625 0.2309375 7.0315625 -1 7 C-1.625 4.625 -1.625 4.625 -2 2 C-1.34 1.34 -0.68 0.68 0 0 Z " fill="#B38EFF" transform="translate(211,158)"/>
<path d="M0 0 C1.67542976 0.28604898 3.34385343 0.61781233 5 1 C5 2.65 5 4.3 5 6 C2.625 6.625 2.625 6.625 0 7 C-0.66 6.34 -1.32 5.68 -2 5 C-1.46428571 1.46428571 -1.46428571 1.46428571 0 0 Z " fill="#BF9FFF" transform="translate(105,158)"/>
<path d="M0 0 C0.66 0 1.32 0 2 0 C2 3.3 2 6.6 2 10 C1.01 9.67 0.02 9.34 -1 9 C-1.99 9.33 -2.98 9.66 -4 10 C-2.8905928 6.51329166 -1.73662334 3.22515763 0 0 Z " fill="#BD9CFF" transform="translate(97,155)"/>
<path d="M0 0 C1.67542976 0.28604898 3.34385343 0.61781233 5 1 C5 1.99 5 2.98 5 4 C4.01 4.495 4.01 4.495 3 5 C3.66 5.33 4.32 5.66 5 6 C3.34385343 6.38218767 1.67542976 6.71395102 0 7 C-1 6 -1 6 -1.125 3.5 C-1 1 -1 1 0 0 Z " fill="#B28CFF" transform="translate(182,158)"/>
<path d="M0 0 C2.475 0.495 2.475 0.495 5 1 C5 2.32 5 3.64 5 5 C3.35 5 1.7 5 0 5 C0 3.35 0 1.7 0 0 Z " fill="#E8DDFF" transform="translate(107,133)"/>
<path d="M0 0 C2.475 0.495 2.475 0.495 5 1 C4.67 2.32 4.34 3.64 4 5 C2.68 5 1.36 5 0 5 C0 3.35 0 1.7 0 0 Z " fill="#E4D7FF" transform="translate(92,133)"/>
<path d="M0 0 C0.33 0.99 0.66 1.98 1 3 C1.66 3 2.32 3 3 3 C3 5.31 3 7.62 3 10 C2.01 9.67 1.02 9.34 0 9 C-1.125 3.375 -1.125 3.375 0 0 Z " fill="#B58FFF" transform="translate(202,155)"/>
<path d="M0 0 C1.32 0 2.64 0 4 0 C4 1.32 4 2.64 4 4 C2.35 4.33 0.7 4.66 -1 5 C-0.67 3.35 -0.34 1.7 0 0 Z " fill="#F3EDFF" transform="translate(135,159)"/>
<path d="M0 0 C1.65 0 3.3 0 5 0 C4.67 1.32 4.34 2.64 4 4 C2.68 4 1.36 4 0 4 C0 2.68 0 1.36 0 0 Z " fill="#EFE7FF" transform="translate(206,134)"/>
<path d="M0 0 C1.65 0 3.3 0 5 0 C5.33 2.31 5.66 4.62 6 7 C5.01 6.67 4.02 6.34 3 6 C2.4375 4.0625 2.4375 4.0625 2 2 C1.34 1.34 0.68 0.68 0 0 Z " fill="#AF87FF" transform="translate(145,158)"/>
<path d="M0 0 C1.98 0 3.96 0 6 0 C5.67 0.99 5.34 1.98 5 3 C3.35 3 1.7 3 0 3 C0 2.01 0 1.02 0 0 Z " fill="#D0B8FF" transform="translate(210,162)"/>
<path d="M0 0 C1.32 0.33 2.64 0.66 4 1 C3.34 2.98 2.68 4.96 2 7 C1.34 7 0.68 7 0 7 C0 4.69 0 2.38 0 0 Z " fill="#BD9CFF" transform="translate(220,158)"/>
</svg>
