<?xml version="1.0" encoding="UTF-8"?>
<svg version="1.1" xmlns="http://www.w3.org/2000/svg" width="242" height="237">
<path d="M0 0 C79.86 0 159.72 0 242 0 C242 78.21 242 156.42 242 237 C162.14 237 82.28 237 0 237 C0 158.79 0 80.58 0 0 Z " fill="#5F6FFF" transform="translate(0,0)"/>
<path d="M0 0 C32.34 0 64.68 0 98 0 C98 0.33 98 0.66 98 1 C97.09121094 1.14695313 96.18242188 1.29390625 95.24609375 1.4453125 C75.36154142 4.9939403 57.07999495 13.50505561 42 27 C41.02417969 27.82113281 40.04835937 28.64226563 39.04296875 29.48828125 C19.4190357 46.27768126 4.81339288 72.59352557 2.71411133 98.5324707 C2.6292749 99.77601318 2.54443848 101.01955566 2.45703125 102.30078125 C2.37042236 103.55673096 2.28381348 104.81268066 2.19458008 106.10668945 C2.13036865 107.06148193 2.06615723 108.01627441 2 109 C9.87670443 108.91508024 17.75321795 108.82000464 25.62964249 108.71247292 C29.28821379 108.66283306 32.94676063 108.6165045 36.60546875 108.578125 C40.14584747 108.54085855 43.68600365 108.49439595 47.22618866 108.44193649 C49.21323773 108.4147785 51.20040552 108.39679439 53.18756104 108.37905884 C67.96145394 108.14239539 82.10133172 106.34930151 93.3515625 95.8125 C102.2685727 86.00801485 107.55777868 75.42998896 110.32421875 62.53125 C111 60 111 60 113 57 C115.4375 56.5625 115.4375 56.5625 118 57 C121.17089012 60.2509631 121.82787193 63.71485002 122.8125 68.0625 C126.32184691 82.18022827 133.85547295 93.27332522 146.125 101.3125 C152.10382191 104.79428452 158.10243491 106.997136 164.6875 108.9921875 C167.53932628 109.85984219 170.25451593 110.84564874 173 112 C173 113.98 173 115.96 173 118 C169.36266692 119.42640513 165.81578832 120.78746567 162.03125 121.7734375 C146.96422747 125.75961579 135.60569529 134.97306447 127.625 148.3125 C122.00691382 158.05783944 122.67691317 170.49782926 122.5859375 181.390625 C122.56717653 182.83080086 122.54759968 184.27096629 122.5272522 185.71112061 C122.47644442 189.45918565 122.43654792 193.20728614 122.39910889 196.95550537 C122.35874267 200.7972452 122.30780111 204.63884421 122.2578125 208.48046875 C122.16166339 215.98688173 122.07706841 223.49336425 122 231 C132.44995845 231.03163901 142.89915806 231.02513587 153.34904671 230.97153378 C158.20280242 230.94780107 163.05587556 230.93662064 167.90966797 230.95532227 C172.60449863 230.97292965 177.29811064 230.95600352 181.99279404 230.91632271 C183.77307924 230.90711406 185.55347194 230.9098125 187.33371353 230.92530632 C200.10371345 231.02554214 209.98061034 229.49966534 220.22561646 221.19615173 C230.79904093 210.35352135 230.7139348 196.93332414 230.55859375 182.80859375 C230.55433119 180.85344256 230.55201368 178.89828627 230.55152893 176.94313049 C230.54539007 172.85727757 230.52283334 168.77197849 230.48706055 164.6862793 C230.44200306 159.50487096 230.42704268 154.32396502 230.42332363 149.14237881 C230.41884494 145.10546617 230.40345139 141.0686542 230.3844471 137.03178596 C230.37569679 135.12443921 230.36890482 133.21708223 230.36428642 131.30972099 C230.24576409 96.8828729 224.79617587 64.39049579 201 38 C200.25234375 37.28070313 199.5046875 36.56140625 198.734375 35.8203125 C197 34 197 34 197 32 C196.14728516 31.63261719 196.14728516 31.63261719 195.27734375 31.2578125 C192.60509397 29.78188724 190.75566127 27.99789135 188.5625 25.875 C182.87230629 20.66248087 176.70309298 16.7840041 170 13 C168.75089844 12.29037109 168.75089844 12.29037109 167.4765625 11.56640625 C156.73951565 5.8411703 145.03861942 2.50202514 133 1 C133 0.67 133 0.34 133 0 C168.97 0 204.94 0 242 0 C242 78.21 242 156.42 242 237 C162.14 237 82.28 237 0 237 C0 158.79 0 80.58 0 0 Z " fill="#FDFDFE" transform="translate(0,0)"/>
<path d="M0 0 C8.00691639 -0.0466293 16.0137747 -0.08202293 24.02079391 -0.10362434 C27.73998611 -0.11399926 31.45908445 -0.12804128 35.17822266 -0.15087891 C38.77682652 -0.17283455 42.37534091 -0.18461574 45.97400665 -0.18975449 C47.99439956 -0.1951718 50.01475719 -0.21074705 52.03509521 -0.22659302 C69.20468555 -0.22865083 82.35686365 2.83927267 95 15 C104.66119181 25.99586196 109.14167861 36.18544459 109.11352539 50.85327148 C109.11367142 51.49802933 109.11381744 52.14278717 109.1139679 52.80708313 C109.11327817 54.91178907 109.10553042 57.01640351 109.09765625 59.12109375 C109.09578872 60.59082491 109.0943664 62.06055669 109.09336853 63.5302887 C109.0895697 67.37879181 109.07976221 71.22725656 109.06866455 75.07574463 C109.0583935 79.0107776 109.05385876 82.94581683 109.04882812 86.88085938 C109.03813732 94.58725698 109.02109292 102.29362309 109 110 C98.38556332 110.13958312 87.77134825 110.24591524 77.15617752 110.31087303 C72.22601948 110.34206425 67.29649356 110.38431126 62.36669922 110.45263672 C57.60094828 110.51826833 52.8358018 110.55379765 48.06963348 110.56926346 C46.25966641 110.5802718 44.44972899 110.60176725 42.64002228 110.63438034 C29.43933984 110.86261316 19.81526761 109.40081437 9.5625 100.25 C2.43192842 92.52521413 -0.16266018 84.30093761 -0.11352539 74.01855469 C-0.11367142 73.2181778 -0.11381744 72.4178009 -0.1139679 71.59317017 C-0.1132723 68.95271069 -0.1054964 66.31232212 -0.09765625 63.671875 C-0.09579082 61.83913207 -0.09436751 60.00638863 -0.09336853 58.17364502 C-0.08955322 53.35350158 -0.07973133 48.53338835 -0.06866455 43.71325684 C-0.05842925 38.79321705 -0.05386637 33.87317237 -0.04882812 28.953125 C-0.03810819 19.30207007 -0.02104359 9.65103755 0 0 Z " fill="#5F6FFE" transform="translate(1,121)"/>
<path d="M0 0 C2.89683868 2.2015974 4.39297231 3.78594462 6 7 C6.44040699 11.84447688 5.70667297 14.93999054 3 19 C-1.31410518 21.94143535 -4.82933754 22.65808431 -10 22 C-13.40850414 19.87915298 -15.81386655 17.8818913 -17 14 C-17.66298343 7.03867403 -17.66298343 7.03867403 -15.125 3.0625 C-10.82712699 -1.10896498 -5.72219232 -0.75965612 0 0 Z " fill="#6272FF" transform="translate(225,0)"/>
<path d="M0 0 C0.33 0 0.66 0 1 0 C1 27.72 1 55.44 1 84 C1.66 84 2.32 84 3 84 C2.34 93.57 1.68 103.14 1 113 C19.81 113 38.62 113 58 113 C58 113.33 58 113.66 58 114 C39.19 114 20.38 114 1 114 C1.08378906 119.6925 1.16757812 125.385 1.25390625 131.25 C1.30482788 134.93228452 1.35531427 138.6145654 1.40429688 142.296875 C1.48149138 148.09707258 1.55999594 153.89722354 1.64819336 159.69726562 C2.00307324 183.16614716 2.03414382 206.54726113 1 230 C0.67 230 0.34 230 0 230 C0 154.1 0 78.2 0 0 Z " fill="#E3E4EC" transform="translate(0,7)"/>
<path d="M0 0 C2.31 0 4.62 0 7 0 C6.071875 1.1446875 6.071875 1.1446875 5.125 2.3125 C2.94402948 4.99625809 2.94402948 4.99625809 1 8 C0 7 0 7 -0.0625 3.4375 C-0.041875 2.303125 -0.02125 1.16875 0 0 Z " fill="#F2F2F2" transform="translate(0,0)"/>
</svg>
